<svg xmlns="http://www.w3.org/2000/svg" preserveAspectRatio="none" 
  viewBox="0 0 1920 1080"><g transform="
          rotate(90 960 540) 
          translate(-746.6666666666665 -420)
          scale(1.7777777777777777)
        "><rect width="1920" height="1080" fill="rgb(255, 255, 255)"></rect><g transform="translate(0, 0)"><path fill="rgb(251, 251, 251)" fill-opacity="1" d="M0,101.673L26.667,95.762C53.333,89.851,106.667,78.029,160,61.699C213.333,45.368,266.667,24.529,320,37.427C373.333,50.324,426.667,96.958,480,124.707C533.333,152.456,586.667,161.32,640,155.032C693.333,148.744,746.667,127.304,800,129.387C853.333,131.471,906.667,157.078,960,140.78C1013.333,124.483,1066.667,66.28,1120,64.493C1173.333,62.705,1226.667,117.333,1280,135.432C1333.333,153.531,1386.667,135.102,1440,133.727C1493.333,132.352,1546.667,148.031,1600,160.069C1653.333,172.107,1706.667,180.504,1760,170.493C1813.333,160.482,1866.667,132.062,1893.333,117.853L1920,103.643L1920,1080L1893.333,1080C1866.667,1080,1813.333,1080,1760,1080C1706.667,1080,1653.333,1080,1600,1080C1546.667,1080,1493.333,1080,1440,1080C1386.667,1080,1333.333,1080,1280,1080C1226.667,1080,1173.333,1080,1120,1080C1066.667,1080,1013.333,1080,960,1080C906.667,1080,853.333,1080,800,1080C746.667,1080,693.333,1080,640,1080C586.667,1080,533.333,1080,480,1080C426.667,1080,373.333,1080,320,1080C266.667,1080,213.333,1080,160,1080C106.667,1080,53.333,1080,26.667,1080L0,1080Z"></path></g><g transform="translate(0, 216)"><path fill="rgb(249, 249, 249)" fill-opacity="1" d="M0,62.728L26.667,52.651C53.333,42.575,106.667,22.422,160,38.887C213.333,55.353,266.667,108.436,320,118.347C373.333,128.257,426.667,94.996,480,92.269C533.333,89.542,586.667,117.35,640,137.195C693.333,157.041,746.667,168.924,800,161.198C853.333,153.473,906.667,126.139,960,129.201C1013.333,132.264,1066.667,165.722,1120,151.563C1173.333,137.403,1226.667,75.624,1280,54.273C1333.333,32.923,1386.667,52.001,1440,75.212C1493.333,98.424,1546.667,125.77,1600,143.19C1653.333,160.609,1706.667,168.104,1760,169.888C1813.333,171.673,1866.667,167.748,1893.333,165.785L1920,163.823L1920,864L1893.333,864C1866.667,864,1813.333,864,1760,864C1706.667,864,1653.333,864,1600,864C1546.667,864,1493.333,864,1440,864C1386.667,864,1333.333,864,1280,864C1226.667,864,1173.333,864,1120,864C1066.667,864,1013.333,864,960,864C906.667,864,853.333,864,800,864C746.667,864,693.333,864,640,864C586.667,864,533.333,864,480,864C426.667,864,373.333,864,320,864C266.667,864,213.333,864,160,864C106.667,864,53.333,864,26.667,864L0,864Z"></path></g><g transform="translate(0, 432)"><path fill="rgb(249, 249, 249)" fill-opacity="1" d="M0,51.332L26.667,46.778C53.333,42.225,106.667,33.117,160,35.425C213.333,37.732,266.667,51.454,320,69.913C373.333,88.371,426.667,111.565,480,120.27C533.333,128.974,586.667,123.189,640,114.289C693.333,105.389,746.667,93.374,800,80.386C853.333,67.399,906.667,53.439,960,62.058C1013.333,70.677,1066.667,101.873,1120,98.118C1173.333,94.363,1226.667,55.656,1280,55.714C1333.333,55.772,1386.667,94.595,1440,123.718C1493.333,152.84,1546.667,172.264,1600,176.043C1653.333,179.823,1706.667,167.96,1760,169.85C1813.333,171.741,1866.667,187.385,1893.333,195.207L1920,203.03L1920,648L1893.333,648C1866.667,648,1813.333,648,1760,648C1706.667,648,1653.333,648,1600,648C1546.667,648,1493.333,648,1440,648C1386.667,648,1333.333,648,1280,648C1226.667,648,1173.333,648,1120,648C1066.667,648,1013.333,648,960,648C906.667,648,853.333,648,800,648C746.667,648,693.333,648,640,648C586.667,648,533.333,648,480,648C426.667,648,373.333,648,320,648C266.667,648,213.333,648,160,648C106.667,648,53.333,648,26.667,648L0,648Z"></path></g><g transform="translate(0, 648)"><path fill="rgb(251, 251, 251)" fill-opacity="1" d="M0,169.902L26.667,152.982C53.333,136.062,106.667,102.223,160,81.401C213.333,60.578,266.667,52.773,320,57.952C373.333,63.13,426.667,81.291,480,105.486C533.333,129.681,586.667,159.91,640,160.463C693.333,161.017,746.667,131.894,800,124.129C853.333,116.363,906.667,129.955,960,144.913C1013.333,159.872,1066.667,176.198,1120,175.854C1173.333,175.51,1226.667,158.496,1280,161.033C1333.333,163.569,1386.667,185.656,1440,165.522C1493.333,145.388,1546.667,83.033,1600,83.458C1653.333,83.882,1706.667,147.084,1760,176.154C1813.333,205.223,1866.667,200.159,1893.333,197.627L1920,195.095L1920,432L1893.333,432C1866.667,432,1813.333,432,1760,432C1706.667,432,1653.333,432,1600,432C1546.667,432,1493.333,432,1440,432C1386.667,432,1333.333,432,1280,432C1226.667,432,1173.333,432,1120,432C1066.667,432,1013.333,432,960,432C906.667,432,853.333,432,800,432C746.667,432,693.333,432,640,432C586.667,432,533.333,432,480,432C426.667,432,373.333,432,320,432C266.667,432,213.333,432,160,432C106.667,432,53.333,432,26.667,432L0,432Z"></path></g><g transform="translate(0, 864)"><path fill="rgb(255, 255, 255)" fill-opacity="1" d="M0,148.143L26.667,137.418C53.333,126.693,106.667,105.243,160,115.458C213.333,125.672,266.667,167.551,320,186.08C373.333,204.609,426.667,199.788,480,195.048C533.333,190.308,586.667,185.65,640,177.071C693.333,168.492,746.667,155.993,800,144.574C853.333,133.155,906.667,122.816,960,120.789C1013.333,118.762,1066.667,125.047,1120,116.639C1173.333,108.23,1226.667,85.128,1280,92.741C1333.333,100.354,1386.667,138.681,1440,134.748C1493.333,130.815,1546.667,84.622,1600,59.001C1653.333,33.38,1706.667,28.331,1760,32.145C1813.333,35.958,1866.667,48.634,1893.333,54.972L1920,61.31L1920,216L1893.333,216C1866.667,216,1813.333,216,1760,216C1706.667,216,1653.333,216,1600,216C1546.667,216,1493.333,216,1440,216C1386.667,216,1333.333,216,1280,216C1226.667,216,1173.333,216,1120,216C1066.667,216,1013.333,216,960,216C906.667,216,853.333,216,800,216C746.667,216,693.333,216,640,216C586.667,216,533.333,216,480,216C426.667,216,373.333,216,320,216C266.667,216,213.333,216,160,216C106.667,216,53.333,216,26.667,216L0,216Z"></path></g></g></svg>
       